{"title":"The Blue Umbrella (2005) DVDRip XviD Mp3 Esub","uid":8372513,"size":1323351173,"categoryP":"video","categoryS":"movies","magnet":"?xt=urn:btih:9e960210a31e3e7588a4291e8bac9e99665153b4&amp;dn=+The+Blue+Umbrella+%282005%29+DVDRip+XviD+Mp3+Esub&amp;tr=udp%3A%2F%2Ftracker.openbittorrent.com%3A80&amp;tr=udp%3A%2F%2Fopen.demonii.com%3A1337&amp;tr=udp%3A%2F%2Ftracker.coppersurfer.tk%3A6969&amp;tr=udp%3A%2F%2Fexodus.desync.com%3A6969","seeders":5,"leechers":1,"uploader":"Bclassics","files":3,"time":1365956436,"description":"\n\n\n-: Cover :-\n\n    &lt;a href=&quot;\thttp://desibbrg.org/images/16751527241829338964.jpg&quot; rel=&quot;nofollow&quot; target=&quot;_NEW&quot;&gt;\thttp://desibbrg.org/images/16751527241829338964.jpg&lt;/a&gt;\n\n\n\n-:\n\n\n\n    &lt;a href=&quot;\thttp://desibbrg.org/images/13614772878763305656.jpg&quot; rel=&quot;nofollow&quot; target=&quot;_NEW&quot;&gt;\thttp://desibbrg.org/images/13614772878763305656.jpg&lt;/a&gt;\n    &lt;a href=&quot;\thttp://desibbrg.org/images/07490900505555474517.jpg&quot; rel=&quot;nofollow&quot; target=&quot;_NEW&quot;&gt;\thttp://desibbrg.org/images/07490900505555474517.jpg&lt;/a&gt;\n    &lt;a href=&quot;\thttp://desibbrg.org/images/00905687449321013602.jpg&quot; rel=&quot;nofollow&quot; target=&quot;_NEW&quot;&gt;\thttp://desibbrg.org/images/00905687449321013602.jpg&lt;/a&gt;\n    &lt;a href=&quot;\thttp://desibbrg.org/images/69258732776800784011.jpg&quot; rel=&quot;nofollow&quot; target=&quot;_NEW&quot;&gt;\thttp://desibbrg.org/images/69258732776800784011.jpg&lt;/a&gt;\n    &lt;a href=&quot;\thttp://desibbrg.org/images/53172331841138451585.jpg&quot; rel=&quot;nofollow&quot; target=&quot;_NEW&quot;&gt;\thttp://desibbrg.org/images/53172331841138451585.jpg&lt;/a&gt;\n    &lt;a href=&quot;\thttp://desibbrg.org/images/72130603598414299547.jpg&quot; rel=&quot;nofollow&quot; target=&quot;_NEW&quot;&gt;\thttp://desibbrg.org/images/72130603598414299547.jpg&lt;/a&gt;\n    &lt;a href=&quot;\thttp://desibbrg.org/images/82398967538024986635.jpg&quot; rel=&quot;nofollow&quot; target=&quot;_NEW&quot;&gt;\thttp://desibbrg.org/images/82398967538024986635.jpg&lt;/a&gt;\n    \n\n-: INFo :-\n\n\n\nGeneral\n\nFormat                           : AVI\nFormat/Info                      : Audio Video Interleave\nFormat profile                   : OpenDML\nFile size                        : 1.23 GiB\nDuration                         : 21mn 8s\nOverall bit rate                 : 8 343 Kbps\nWriting application              : Lavf52.31.0\n\nVideo\nID                               : 0\nFormat                           : xvid\nCodec ID                         : xvid\nDuration                         : 21mn 8s\nBit rate                         : 1 812 Kbps\nWidth                            : 704 pixels\nHeight                           : 394 pixels\nDisplay aspect ratio             : 16:9\nFrame rate                       : 29.970 fps\nBits/(Pixel*Frame)               : 0.218\nStream size                      : 274 MiB (22%)\n\nAudio\nID                               : 1\nFormat                           : MPEG Audio\nFormat version                   : Version 1\nFormat profile                   : Layer 3\nMode                             : Joint stereo\nMode extension                   : MS Stereo\nCodec ID                         : 55\nCodec ID/Hint                    : MP3\nDuration                         : 16mn 35s\nBit rate mode                    : Constant\nBit rate                         : 128 Kbps\nChannel(s)                       : 2 channels\nSampling rate                    : 44.1 KHz\nStream size                      : 15.2 MiB (1%)\nAlignment                        : Aligned on interleaves\nInterleave, duration             : 33 ms (1.00 video frame)\n\n\n &lt;a href=&quot;\nhttp://www.imdb.com/title/tt0457802/&quot; rel=&quot;nofollow&quot; target=&quot;_NEW&quot;&gt;\nhttp://www.imdb.com/title/tt0457802/&lt;/a&gt;\n\n\nDirected by\nVishal Bhardwaj\t \t\n \nWriting credits\nRuskin Bond\t \t(based on a novella by)\n\nMinty Kunwar Tejpal\t \t(screenplay) and\nAbhishek Chaubey\t \t(screenplay) and\nVishal Bhardwaj\t \t(screenplay)\n\nVishal Bhardwaj\t \t(dialogue)\n\nCast (in credits order)\n\tPankaj Kapur\t... \tNandakishore 'Nandu' Khatri\n\tShreya Sharma\t... \tBiniya\n\tDeepak Dobriyal\t... \tRobot Owner\n\tRahul Kumar\t... \tTikku\n\tParamjit Singh Kakran\t... \tRajaram\n\tPiu Dutt\t... \tBinya's mother\n\tShailendra Mohite\t... \tCobbler\n\tBhupinder Sharma\t... \tVaidji\n\tKamal Tiwari\t... \tMukhiya (as Kamal Tewari)\n\tKumar Thakur\t... \tChander\n\tDolly Ahluwalia\t... \tLillavati\n\tAlok Mathur\t... \tMasterji\n\tRajesh Sharma\t... \tPoliceman\n\nOriginal Music by\nVishal Bhardwaj\t \t\n \nCinematography by\nSachin Krishn\t \t(director of photography) (as Sachin K. Krishn)\n \nFilm Editing by\nAarif Sheikh\t \t\n \nCasting by\nHoney Trehan\t \t(uncredited) \n\nYoung Biniya lives a poor lifestyle in a small village in the mountainous and snowy region of Himachal Pradesh in India along with her widowed mom and wrestler brother. She entertains various tourists, and while doing so with some tourists from Japan, trades in her bear-tooth amulet with a blue umbrella. She and her umbrella become very popular with both tourists and the local villagers. A restaurant-owner, Nandkishore Khatri, takes a fancy to this umbrella and attempts several times to buy if off of her - in vain. Then one day while tending to her two cows, the umbrella goes missing. The entire village sympathizes with her. She suspects Nandkishore, and the police turn his house upside down but are unable to locate the missing umbrella. An embittered and upset Nandkishore orders a red-and-white Japanese umbrella and, in turn, becomes immensely popular with the local villagers as well as with tourists. The question remains: where did Biniya's umbrella disappear to, and will she ever ...\n\n\n\n","torrent":{"xt":"urn:btih:9e960210a31e3e7588a4291e8bac9e99665153b4","amp;dn":"+The+Blue+Umbrella+%282005%29+DVDRip+XviD+Mp3+Esub","amp;tr":["udp%3A%2F%2Ftracker.openbittorrent.com%3A80","udp%3A%2F%2Fopen.demonii.com%3A1337","udp%3A%2F%2Ftracker.coppersurfer.tk%3A6969","udp%3A%2F%2Fexodus.desync.com%3A6969"],"infoHash":"9e960210a31e3e7588a4291e8bac9e99665153b4","infoHashBuffer":{"type":"Buffer","data":[158,150,2,16,163,30,62,117,136,164,41,30,139,172,158,153,102,81,83,180]},"announce":[],"urlList":[]}}